<svg>
  <symbol xmlns="http://www.w3.org/2000/svg" viewBox="0 0 80 80" id="Light">
    <path d="M38.946 56.571c9.941 0 18-8.058 18-18 0-9.94-8.059-18-18-18s-18 8.06-18 18c0 9.942 8.059 18 18 18ZM63.946 35.571h10a3 3 0 1 1 0 6h-10a3 3 0 0 1 0-6ZM54.193 18.45l7.07-7.071a3 3 0 0 1 4.243 4.242l-7.07 7.072a3 3 0 1 1-4.243-4.243ZM35.316 13.57v-10a3 3 0 0 1 6 0v10a3 3 0 1 1-6 0ZM18.556 22.823l-6.611-6.61a3 3 0 0 1 4.243-4.243l.032.032 7.039 7.039-.042.041a3 3 0 1 1-4.66 3.741ZM13.945 41.571h-10a3 3 0 0 1 0-6h10a3 3 0 1 1 0 6ZM24.142 58.92l-6.346 7.728a3 3 0 0 1-4.637-3.808l6.346-7.728a3 3 0 1 1 4.637 3.808ZM41.46 63.572v10a3 3 0 0 1-6 0v-10a3 3 0 0 1 6 0ZM58.22 54.45l7.07 7.071a3 3 0 0 1-4.242 4.243l-7.071-7.071a3 3 0 0 1 4.243-4.243Z"/>
  </symbol>
  <symbol xmlns="http://www.w3.org/2000/svg" viewBox="0 0 80 80" id="Auto">
    <path fill-rule="evenodd" clip-rule="evenodd" d="M37 74c20.434 0 37-16.566 37-37S57.434 0 37 0 0 16.566 0 37s16.566 37 37 37Zm0-7c16.569 0 30-13.431 30-30C67 20.431 53.569 7 37 7v60Z"></path>
  </symbol>
  <symbol xmlns="http://www.w3.org/2000/svg" viewBox="0 0 80 80" id="Dark">
    <path d="M74.694 49.21A32.387 32.387 0 0 1 61.5 52C43.55 52 29 37.45 29 19.5a32.353 32.353 0 0 1 4.18-15.955C16.032 6.54 3 21.497 3 39.5 3 59.658 19.342 76 39.5 76c16.796 0 30.942-11.345 35.194-26.79Z"></path>
  </symbol>
  <symbol xmlns="http://www.w3.org/2000/svg" viewBox="0 0 12 10" id="Arrow-back">
    <path d="M.719 4.297 5.109 0l1.438 1.406-2.594 2.516H12v2.156H3.969l2.578 2.516L5.109 10 0 5l.719-.703Z"></path>
  </symbol>
</svg>
